<?xml version="1.0" standalone="no"?><!DOCTYPE svg PUBLIC "-//W3C//DTD SVG 1.1//EN"
        "http://www.w3.org/Graphics/SVG/1.1/DTD/svg11.dtd">
<svg t="1694934216174" class="icon" viewBox="0 0 1024 1024" version="1.1" xmlns="http://www.w3.org/2000/svg" p-id="5801"
     width="200" height="200">
    <path d="M738.076444 429.710222C722.659556 300.430222 588.743111 199.111111 426.780444 199.111111 254.179556 199.111111 113.777778 313.969778 113.777778 455.196444a239.445333 239.445333 0 0 0 111.815111 194.360889c10.894222 8.021333 22.300444 15.36 34.133333 21.902223l-13.880889 55.438222c5.006222 2.332444 9.870222 4.835556 14.990223 6.997333l70.087111-35.043555c10.24 2.673778 21.020444 4.380444 31.715555 6.200888 6.826667 1.194667 13.653333 2.446222 20.650667 3.299556 43.719111 5.489778 88.064 2.958222 130.844444-7.509333 1.336889 18.944 4.807111 37.717333 10.353778 55.893333a432.611556 432.611556 0 0 1-97.706667 11.434667 424.732444 424.732444 0 0 1-87.779555-9.671111l-127.175111 63.488a28.074667 28.074667 0 0 1-30.435556-3.185778 28.444444 28.444444 0 0 1-9.841778-29.070222l22.755556-91.619556A296.760889 296.760889 0 0 1 56.888889 455.196444C56.888889 282.339556 222.492444 142.222222 426.780444 142.222222c193.962667 0 352.796444 126.464 368.270223 287.203556a249.173333 249.173333 0 0 0-26.88-2.673778 250.538667 250.538667 0 0 0-30.094223 2.929778v0.028444zM816.071111 783.701333a116.053333 116.053333 0 0 0 52.252445-31.573333 138.069333 138.069333 0 0 1 47.786666-19.342222 51.2 51.2 0 1 0-51.399111-51.057778c-4.551111 19.882667-12.600889 38.798222-23.779555 55.864889-13.368889 12.032-22.186667 28.302222-24.860445 46.108444z"
          fill="#0082EF" p-id="5802"></path>
    <path d="M663.665778 741.376c5.489778 19.996444 16.213333 38.144 31.004444 52.622222a138.808889 138.808889 0 0 1 19.000889 48.014222 51.2 51.2 0 1 0 51.2-51.2 171.349333 171.349333 0 0 1-55.552-24.291555v0.284444a77.226667 77.226667 0 0 0-45.653333-25.429333z"
          fill="#FC6500" p-id="5803"></path>
    <path d="M610.304 631.324444a51.2 51.2 0 1 0 51.370667 51.114667 172.088889 172.088889 0 0 1 23.779555-55.893333c13.368889-12.003556 22.186667-28.273778 24.888889-46.051556a116.053333 116.053333 0 0 0-52.252444 31.488 137.955556 137.955556 0 0 1-47.786667 19.342222z"
          fill="#FFCC00" p-id="5804"></path>
    <path d="M722.944 514.929778a51.2 51.2 0 0 0 51.2 51.2c19.854222 4.664889 38.684444 12.8 55.694222 24.064h-0.056889 0.199111c11.861333 13.425778 28.046222 22.328889 45.738667 25.144889a116.565333 116.565333 0 0 0-31.260444-52.451556 139.576889 139.576889 0 0 1-19.114667-47.957333 51.2 51.2 0 1 0-102.4 0z"
          fill="#2EBC01" p-id="5805"></path>
</svg>
